<?xml version="1.0" encoding="UTF-8"?>
<svg width="500px" height="500px" viewBox="0 0 500 500" version="1.1" xmlns="http://www.w3.org/2000/svg" xmlns:xlink="http://www.w3.org/1999/xlink">
    <!-- Generator: Sketch 52.4 (67378) - http://www.bohemiancoding.com/sketch -->
    <title>icon</title>
    <desc>Created with Sketch.</desc>
    <g id="Page-1" stroke="none" stroke-width="1" fill="none" fill-rule="evenodd">
        <g id="icon" fill-rule="nonzero">
            <g fill="#F47B29" id="Shape">
                <path d="M250.054329,5.1733717e-06 C148.935635,-0.0204932442 57.7623425,60.8761623 19.0516893,154.291769 C-19.6589639,247.707376 1.71715161,355.243571 73.2116188,426.752533 C144.706086,498.261495 252.237948,519.659411 345.661403,480.967698 C439.084858,442.275985 499.999998,351.115042 500,249.996349 C499.944088,111.970133 388.080533,0.0839003695 250.054329,5.1733717e-06 Z"></path>
            </g>
            <g id="Group" transform="translate(117.000000, 123.000000)">
                <rect id="Rectangle" stroke="#FFFFFF" stroke-width="20" x="10" y="10" width="246" height="234" rx="24"></rect>
                <rect id="Rectangle-Copy-4" fill="#FFFFFF" x="9" y="13" width="249" height="35"></rect>
                <polygon id="Rectangle-Copy-2" fill="#FFFFFF" transform="translate(91.500000, 129.500000) rotate(-270.000000) translate(-91.500000, -129.500000) " points="-30 121 213 121 213 138 -30 138"></polygon>
                <polygon id="Rectangle-Copy-3" fill="#FFFFFF" transform="translate(174.500000, 129.500000) rotate(-270.000000) translate(-174.500000, -129.500000) " points="53 121 296 121 296 138 53 138"></polygon>
                <g id="Group-2" transform="translate(17.000000, 98.000000)" fill="#FFFFFF">
                    <rect id="Rectangle-Copy" x="0" y="67" width="233" height="17"></rect>
                    <rect id="Rectangle-Copy-6" x="0" y="134" width="233" height="17"></rect>
                    <rect id="Rectangle" x="0" y="0" width="233" height="17"></rect>
                </g>
            </g>
        </g>
    </g>
</svg>